<?xml version="1.0" encoding="utf-8"?>
<!-- Generator: Adobe Illustrator 16.0.0, SVG Export Plug-In . SVG Version: 6.00 Build 0)  -->
<!DOCTYPE svg PUBLIC "-//W3C//DTD SVG 1.1 Tiny//EN" "http://www.w3.org/Graphics/SVG/1.1/DTD/svg11-tiny.dtd">
<svg version="1.1" baseProfile="tiny" id="Layer_1" xmlns="http://www.w3.org/2000/svg" xmlns:xlink="http://www.w3.org/1999/xlink"
	 x="0px" y="0px" width="445px" height="711.237px" viewBox="0 0 445 711.237" xml:space="preserve">
<path fill="#8FB63C" d="M222.501,605L445,694.021V-0.569C445-29.339,421.678,0,392.907,0H52.093C23.323,0,0-28.77,0,0v694.021
	L222.501,605z"/>
<g id="Lock">
	<path fill="#FFFFFF" d="M288.277,297.94h22.751c1.581,0,2.886,0.567,3.904,1.698c1.019,1.135,1.528,2.493,1.528,4.074V423.23
		c0,3.617-1.814,5.432-5.433,5.432H134.806c-3.624,0-5.433-1.814-5.433-5.432V303.712c0-1.581,0.509-2.939,1.527-4.074
		c1.019-1.13,2.318-1.698,3.905-1.698h22.07v-55.685c0-16.07,4.694-29.593,14.091-40.575c9.39-10.977,21.672-16.468,36.84-16.468
		h29.201c15.162,0,27.502,5.491,37.01,16.468c9.508,10.982,14.26,24.505,14.26,40.575V297.94z M185.737,297.94h74.021v-0.34v-52.628
		c0-8.6-3.115-16.07-9.338-22.41c-6.229-6.334-13.752-9.507-22.58-9.507h-10.526c-8.605,0-16.017,3.173-22.239,9.507
		c-6.229,6.34-9.338,13.81-9.338,22.41V297.6V297.94z M207.128,394.03h31.577l-7.809-34.294c6.111-3.167,9.168-8.149,9.168-14.94
		c0-4.977-1.699-9.109-5.094-12.393c-3.396-3.279-7.471-4.923-12.225-4.923c-4.752,0-8.774,1.645-12.053,4.923
		c-3.284,3.284-4.923,7.417-4.923,12.393c0,6.791,3.056,11.772,9.167,14.94L207.128,394.03z"/>
</g>
</svg>
